<?xml version="1.0" encoding="UTF-8" standalone="no"?>
<svg
   xmlns:dc="http://purl.org/dc/elements/1.1/"
   xmlns:cc="http://creativecommons.org/ns#"
   xmlns:rdf="http://www.w3.org/1999/02/22-rdf-syntax-ns#"
   xmlns:svg="http://www.w3.org/2000/svg"
   xmlns="http://www.w3.org/2000/svg"
   width="23"
   height="20"
   viewBox="0 0 6.0854165 5.2916665"
   version="1.1"
   id="svg16">
  <defs
     id="defs10" />
  <metadata
     id="metadata13">
    <rdf:RDF>
      <cc:Work
         rdf:about="">
        <dc:format>image/svg+xml</dc:format>
        <dc:type
           rdf:resource="http://purl.org/dc/dcmitype/StillImage" />
        <dc:title></dc:title>
      </cc:Work>
    </rdf:RDF>
  </metadata>
  <g
     id="layer3">
    <path
       id="path898-0"
       d="M 5.453144,-2.7989095 C 6.6150783,-1.7086529 6.2424344,-0.33690242 6.2344306,-0.299719 5.2059807,-0.75821342 4.7583388,-1.6798989 4.689565,-2.4181837 4.9530787,-2.4946287 5.2009956,-2.6217176 5.453144,-2.7989095 Z"
       style="fill:none;fill-opacity:1;stroke:none;stroke-width:0.264583px;stroke-linecap:butt;stroke-linejoin:miter;stroke-opacity:1" />
    <g
       id="g963">
      <path
         id="path898"
         d="M 2.8314285,2.1976549 C 3.1946513,0.64626193 4.568944,0.28310587 4.6051477,0.27144562 4.7223048,1.3913565 4.1479227,2.2398685 3.5429362,2.6685708 3.3449761,2.4785837 3.1109554,2.3274258 2.8314285,2.1976549 Z"
         style="fill:#ffff00;fill-opacity:1;stroke:none;stroke-width:0.264583px;stroke-linecap:butt;stroke-linejoin:miter;stroke-opacity:1" />
      <path
         style="fill:#ff63ff;fill-opacity:1;stroke:none;stroke-width:0.264583px;stroke-linecap:butt;stroke-linejoin:miter;stroke-opacity:1"
         d="M 3.5429362,2.6685708 C 4.7048705,3.7588274 4.3322265,5.1305778 4.3242228,5.1677613 3.2957729,4.7092669 2.8481311,3.7875814 2.7793572,3.0492966 3.0428709,2.9728516 3.2907879,2.8457627 3.5429362,2.6685708 Z"
         id="path898-4" />
      <path
         id="path898-4-3"
         d="M 2.7793572,3.0492966 C 1.2542002,3.5104329 0.2525515,2.5018385 0.2243515,2.4763154 1.1356442,1.8148988 2.1576682,1.8880724 2.8314285,2.1976549 c -0.065554,0.266432 -0.07945,0.5446789 -0.052071,0.8516417 z"
         style="fill:#00ffff;fill-opacity:1;stroke:none;stroke-width:0.264583px;stroke-linecap:butt;stroke-linejoin:miter;stroke-opacity:1" />
    </g>
  </g>
</svg>
