<svg xmlns="http://www.w3.org/2000/svg" width="30"  viewBox="0 0 6.0854165 5.2916665">
    <path d="M5.453144-2.7989095C6.6150783-1.7086529 6.2424344-0.33690242 6.2344306-0.299719 5.2059807-0.75821342 4.7583388-1.6798989 4.689565-2.4181837 4.9530787-2.4946287 5.2009956-2.6217176 5.453144-2.7989095Z" style="fill:white;stroke-width:0.264583px"/>
      <path d="M2.8314285 2.1976549C3.1946513 0.64626193 4.568944 0.28310587 4.6051477 0.27144562 4.7223048 1.3913565 4.1479227 2.2398685 3.5429362 2.6685708 3.3449761 2.4785837 3.1109554 2.3274258 2.8314285 2.1976549Z" style="fill:#ff0;stroke-width:0.264583px"/>
      <path d="M3.5429362 2.6685708C4.7048705 3.7588274 4.3322265 5.1305778 4.3242228 5.1677613 3.2957729 4.7092669 2.8481311 3.7875814 2.7793572 3.0492966 3.0428709 2.9728516 3.2907879 2.8457627 3.5429362 2.6685708Z" style="fill:#ff63ff;stroke-width:0.264583px"/>
      <path d="M2.7793572 3.0492966C1.2542002 3.5104329 0.2525515 2.5018385 0.2243515 2.4763154 1.1356442 1.8148988 2.1576682 1.8880724 2.8314285 2.1976549c-0.065554 0.266432-0.07945 0.5446789-0.052071 0.8516417z" style="fill:#0ff;stroke-width:0.264583px"/>
</svg>